<mxfile host="app.diagrams.net" agent="Mozilla/5.0 (Windows NT 10.0; Win64; x64) AppleWebKit/537.36 (KHTML, like Gecko) Chrome/135.0.0.0 Safari/537.36" version="27.0.2">
  <diagram name="PÃ¡gina-1" id="0adSlzIBBvXflegWIsoh">
    <mxGraphModel dx="2316" dy="753" grid="1" gridSize="10" guides="1" tooltips="1" connect="1" arrows="1" fold="1" page="1" pageScale="1" pageWidth="827" pageHeight="1169" math="0" shadow="0">
      <root>
        <mxCell id="0" />
        <mxCell id="1" parent="0" />
        <mxCell id="stb4HqVPZg3RxpOIzkBb-34" style="edgeStyle=orthogonalEdgeStyle;rounded=0;orthogonalLoop=1;jettySize=auto;html=1;exitX=0.5;exitY=1;exitDx=0;exitDy=0;entryX=0.5;entryY=0;entryDx=0;entryDy=0;" edge="1" parent="1" source="stb4HqVPZg3RxpOIzkBb-1" target="stb4HqVPZg3RxpOIzkBb-6">
          <mxGeometry relative="1" as="geometry" />
        </mxCell>
        <mxCell id="stb4HqVPZg3RxpOIzkBb-35" value="entrarSala2" style="edgeLabel;html=1;align=center;verticalAlign=middle;resizable=0;points=[];" vertex="1" connectable="0" parent="stb4HqVPZg3RxpOIzkBb-34">
          <mxGeometry x="-0.1861" relative="1" as="geometry">
            <mxPoint as="offset" />
          </mxGeometry>
        </mxCell>
        <mxCell id="stb4HqVPZg3RxpOIzkBb-1" value="&lt;span style=&quot;font-size: 16px;&quot;&gt;[1, 0, 0]&lt;/span&gt;" style="ellipse;whiteSpace=wrap;html=1;aspect=fixed;" vertex="1" parent="1">
          <mxGeometry x="610" y="220" width="80" height="80" as="geometry" />
        </mxCell>
        <mxCell id="stb4HqVPZg3RxpOIzkBb-2" value="&lt;font style=&quot;font-size: 16px;&quot;&gt;S = {[1, 0, 0], [1, 0, 1], [1, 1, 0], [1, 1, 1], [2, 0, 0], [2, 0, 1], [2, 1, 0], [2, 1, 1]}&lt;/font&gt;" style="text;html=1;align=center;verticalAlign=middle;whiteSpace=wrap;rounded=0;" vertex="1" parent="1">
          <mxGeometry x="126" y="160" width="576" height="30" as="geometry" />
        </mxCell>
        <mxCell id="stb4HqVPZg3RxpOIzkBb-13" style="edgeStyle=orthogonalEdgeStyle;rounded=0;orthogonalLoop=1;jettySize=auto;html=1;entryX=0;entryY=0.5;entryDx=0;entryDy=0;" edge="1" parent="1" source="stb4HqVPZg3RxpOIzkBb-3" target="stb4HqVPZg3RxpOIzkBb-8">
          <mxGeometry relative="1" as="geometry" />
        </mxCell>
        <mxCell id="stb4HqVPZg3RxpOIzkBb-14" value="entrarSala2" style="edgeLabel;html=1;align=center;verticalAlign=middle;resizable=0;points=[];" vertex="1" connectable="0" parent="stb4HqVPZg3RxpOIzkBb-13">
          <mxGeometry x="-0.2131" y="2" relative="1" as="geometry">
            <mxPoint as="offset" />
          </mxGeometry>
        </mxCell>
        <mxCell id="stb4HqVPZg3RxpOIzkBb-3" value="&lt;span style=&quot;font-size: 16px;&quot;&gt;[1, 0, 1]&lt;/span&gt;" style="ellipse;whiteSpace=wrap;html=1;aspect=fixed;" vertex="1" parent="1">
          <mxGeometry x="240" y="420" width="80" height="80" as="geometry" />
        </mxCell>
        <mxCell id="stb4HqVPZg3RxpOIzkBb-25" style="edgeStyle=orthogonalEdgeStyle;rounded=0;orthogonalLoop=1;jettySize=auto;html=1;entryX=0;entryY=0.5;entryDx=0;entryDy=0;" edge="1" parent="1" source="stb4HqVPZg3RxpOIzkBb-4" target="stb4HqVPZg3RxpOIzkBb-1">
          <mxGeometry relative="1" as="geometry" />
        </mxCell>
        <mxCell id="stb4HqVPZg3RxpOIzkBb-26" value="aspirar" style="edgeLabel;html=1;align=center;verticalAlign=middle;resizable=0;points=[];" vertex="1" connectable="0" parent="stb4HqVPZg3RxpOIzkBb-25">
          <mxGeometry x="0.02" y="-1" relative="1" as="geometry">
            <mxPoint as="offset" />
          </mxGeometry>
        </mxCell>
        <mxCell id="stb4HqVPZg3RxpOIzkBb-32" style="edgeStyle=orthogonalEdgeStyle;rounded=0;orthogonalLoop=1;jettySize=auto;html=1;exitX=0.5;exitY=1;exitDx=0;exitDy=0;entryX=0.5;entryY=1;entryDx=0;entryDy=0;" edge="1" parent="1" source="stb4HqVPZg3RxpOIzkBb-4" target="stb4HqVPZg3RxpOIzkBb-7">
          <mxGeometry relative="1" as="geometry" />
        </mxCell>
        <mxCell id="stb4HqVPZg3RxpOIzkBb-33" value="entrarSala2" style="edgeLabel;html=1;align=center;verticalAlign=middle;resizable=0;points=[];" vertex="1" connectable="0" parent="stb4HqVPZg3RxpOIzkBb-32">
          <mxGeometry x="-0.142" y="-1" relative="1" as="geometry">
            <mxPoint as="offset" />
          </mxGeometry>
        </mxCell>
        <mxCell id="stb4HqVPZg3RxpOIzkBb-4" value="&lt;span style=&quot;font-size: 16px;&quot;&gt;[1, 1, 0]&lt;/span&gt;" style="ellipse;whiteSpace=wrap;html=1;aspect=fixed;" vertex="1" parent="1">
          <mxGeometry x="430" y="220" width="80" height="80" as="geometry" />
        </mxCell>
        <mxCell id="stb4HqVPZg3RxpOIzkBb-11" style="edgeStyle=orthogonalEdgeStyle;rounded=0;orthogonalLoop=1;jettySize=auto;html=1;entryX=0;entryY=0.5;entryDx=0;entryDy=0;" edge="1" parent="1" source="stb4HqVPZg3RxpOIzkBb-5" target="stb4HqVPZg3RxpOIzkBb-3">
          <mxGeometry relative="1" as="geometry" />
        </mxCell>
        <mxCell id="stb4HqVPZg3RxpOIzkBb-12" value="aspirar" style="edgeLabel;html=1;align=center;verticalAlign=middle;resizable=0;points=[];" vertex="1" connectable="0" parent="stb4HqVPZg3RxpOIzkBb-11">
          <mxGeometry x="0.1336" y="-1" relative="1" as="geometry">
            <mxPoint x="-5" y="-1" as="offset" />
          </mxGeometry>
        </mxCell>
        <mxCell id="stb4HqVPZg3RxpOIzkBb-18" style="edgeStyle=orthogonalEdgeStyle;rounded=0;orthogonalLoop=1;jettySize=auto;html=1;entryX=0.5;entryY=1;entryDx=0;entryDy=0;" edge="1" parent="1" source="stb4HqVPZg3RxpOIzkBb-5" target="stb4HqVPZg3RxpOIzkBb-9">
          <mxGeometry relative="1" as="geometry" />
        </mxCell>
        <mxCell id="stb4HqVPZg3RxpOIzkBb-19" value="entrarSala2" style="edgeLabel;html=1;align=center;verticalAlign=middle;resizable=0;points=[];" vertex="1" connectable="0" parent="stb4HqVPZg3RxpOIzkBb-18">
          <mxGeometry x="0.2167" relative="1" as="geometry">
            <mxPoint as="offset" />
          </mxGeometry>
        </mxCell>
        <mxCell id="stb4HqVPZg3RxpOIzkBb-5" value="&lt;span style=&quot;font-size: 16px;&quot;&gt;[1, 1, 1]&lt;/span&gt;" style="ellipse;whiteSpace=wrap;html=1;aspect=fixed;" vertex="1" parent="1">
          <mxGeometry x="80" y="420" width="80" height="80" as="geometry" />
        </mxCell>
        <mxCell id="stb4HqVPZg3RxpOIzkBb-6" value="&lt;span style=&quot;font-size: 16px;&quot;&gt;[2, 0, 0]&lt;/span&gt;" style="ellipse;whiteSpace=wrap;html=1;aspect=fixed;" vertex="1" parent="1">
          <mxGeometry x="610" y="420" width="80" height="80" as="geometry" />
        </mxCell>
        <mxCell id="stb4HqVPZg3RxpOIzkBb-22" style="edgeStyle=orthogonalEdgeStyle;rounded=0;orthogonalLoop=1;jettySize=auto;html=1;exitX=1;exitY=0.5;exitDx=0;exitDy=0;entryX=0;entryY=0.5;entryDx=0;entryDy=0;" edge="1" parent="1" source="stb4HqVPZg3RxpOIzkBb-7" target="stb4HqVPZg3RxpOIzkBb-4">
          <mxGeometry relative="1" as="geometry" />
        </mxCell>
        <mxCell id="stb4HqVPZg3RxpOIzkBb-24" value="entrarSala1" style="edgeLabel;html=1;align=center;verticalAlign=middle;resizable=0;points=[];" vertex="1" connectable="0" parent="stb4HqVPZg3RxpOIzkBb-22">
          <mxGeometry x="-0.2091" y="2" relative="1" as="geometry">
            <mxPoint as="offset" />
          </mxGeometry>
        </mxCell>
        <mxCell id="stb4HqVPZg3RxpOIzkBb-7" value="&lt;span style=&quot;font-size: 16px;&quot;&gt;[2, 1, 0]&lt;/span&gt;" style="ellipse;whiteSpace=wrap;html=1;aspect=fixed;" vertex="1" parent="1">
          <mxGeometry x="240" y="220" width="80" height="80" as="geometry" />
        </mxCell>
        <mxCell id="stb4HqVPZg3RxpOIzkBb-15" style="edgeStyle=orthogonalEdgeStyle;rounded=0;orthogonalLoop=1;jettySize=auto;html=1;entryX=0;entryY=0.5;entryDx=0;entryDy=0;" edge="1" parent="1" source="stb4HqVPZg3RxpOIzkBb-8" target="stb4HqVPZg3RxpOIzkBb-6">
          <mxGeometry relative="1" as="geometry" />
        </mxCell>
        <mxCell id="stb4HqVPZg3RxpOIzkBb-16" value="aspirar" style="edgeLabel;html=1;align=center;verticalAlign=middle;resizable=0;points=[];" vertex="1" connectable="0" parent="stb4HqVPZg3RxpOIzkBb-15">
          <mxGeometry x="-0.344" y="-1" relative="1" as="geometry">
            <mxPoint x="14" y="-1" as="offset" />
          </mxGeometry>
        </mxCell>
        <mxCell id="stb4HqVPZg3RxpOIzkBb-30" style="edgeStyle=orthogonalEdgeStyle;rounded=0;orthogonalLoop=1;jettySize=auto;html=1;exitX=0.5;exitY=1;exitDx=0;exitDy=0;entryX=0.5;entryY=1;entryDx=0;entryDy=0;" edge="1" parent="1" source="stb4HqVPZg3RxpOIzkBb-8" target="stb4HqVPZg3RxpOIzkBb-3">
          <mxGeometry relative="1" as="geometry">
            <Array as="points">
              <mxPoint x="460" y="560" />
              <mxPoint x="280" y="560" />
            </Array>
          </mxGeometry>
        </mxCell>
        <mxCell id="stb4HqVPZg3RxpOIzkBb-31" value="entrarSala1" style="edgeLabel;html=1;align=center;verticalAlign=middle;resizable=0;points=[];" vertex="1" connectable="0" parent="stb4HqVPZg3RxpOIzkBb-30">
          <mxGeometry x="-0.0778" y="2" relative="1" as="geometry">
            <mxPoint as="offset" />
          </mxGeometry>
        </mxCell>
        <mxCell id="stb4HqVPZg3RxpOIzkBb-8" value="&lt;span style=&quot;font-size: 16px;&quot;&gt;[2, 0, 1]&lt;/span&gt;" style="ellipse;whiteSpace=wrap;html=1;aspect=fixed;" vertex="1" parent="1">
          <mxGeometry x="420" y="420" width="80" height="80" as="geometry" />
        </mxCell>
        <mxCell id="stb4HqVPZg3RxpOIzkBb-20" style="edgeStyle=orthogonalEdgeStyle;rounded=0;orthogonalLoop=1;jettySize=auto;html=1;entryX=0;entryY=0.5;entryDx=0;entryDy=0;" edge="1" parent="1" source="stb4HqVPZg3RxpOIzkBb-9" target="stb4HqVPZg3RxpOIzkBb-7">
          <mxGeometry relative="1" as="geometry" />
        </mxCell>
        <mxCell id="stb4HqVPZg3RxpOIzkBb-21" value="aspirar" style="edgeLabel;html=1;align=center;verticalAlign=middle;resizable=0;points=[];" vertex="1" connectable="0" parent="stb4HqVPZg3RxpOIzkBb-20">
          <mxGeometry x="-0.0578" y="2" relative="1" as="geometry">
            <mxPoint as="offset" />
          </mxGeometry>
        </mxCell>
        <mxCell id="stb4HqVPZg3RxpOIzkBb-9" value="&lt;span style=&quot;font-size: 16px;&quot;&gt;[2, 1, 1]&lt;/span&gt;" style="ellipse;whiteSpace=wrap;html=1;aspect=fixed;" vertex="1" parent="1">
          <mxGeometry x="80" y="220" width="80" height="80" as="geometry" />
        </mxCell>
        <mxCell id="stb4HqVPZg3RxpOIzkBb-28" style="edgeStyle=orthogonalEdgeStyle;rounded=0;orthogonalLoop=1;jettySize=auto;html=1;entryX=-0.008;entryY=0.606;entryDx=0;entryDy=0;entryPerimeter=0;" edge="1" parent="1" source="stb4HqVPZg3RxpOIzkBb-9" target="stb4HqVPZg3RxpOIzkBb-5">
          <mxGeometry relative="1" as="geometry">
            <Array as="points">
              <mxPoint x="20" y="260" />
              <mxPoint x="20" y="469" />
            </Array>
          </mxGeometry>
        </mxCell>
        <mxCell id="stb4HqVPZg3RxpOIzkBb-29" value="entrarSala1" style="edgeLabel;html=1;align=center;verticalAlign=middle;resizable=0;points=[];" vertex="1" connectable="0" parent="stb4HqVPZg3RxpOIzkBb-28">
          <mxGeometry x="-0.1714" relative="1" as="geometry">
            <mxPoint y="31" as="offset" />
          </mxGeometry>
        </mxCell>
        <mxCell id="stb4HqVPZg3RxpOIzkBb-36" style="edgeStyle=orthogonalEdgeStyle;rounded=0;orthogonalLoop=1;jettySize=auto;html=1;entryX=1;entryY=0.375;entryDx=0;entryDy=0;entryPerimeter=0;" edge="1" parent="1" source="stb4HqVPZg3RxpOIzkBb-6" target="stb4HqVPZg3RxpOIzkBb-1">
          <mxGeometry relative="1" as="geometry">
            <Array as="points">
              <mxPoint x="740" y="460" />
              <mxPoint x="740" y="250" />
            </Array>
          </mxGeometry>
        </mxCell>
        <mxCell id="stb4HqVPZg3RxpOIzkBb-37" value="entrarSala1" style="edgeLabel;html=1;align=center;verticalAlign=middle;resizable=0;points=[];" vertex="1" connectable="0" parent="stb4HqVPZg3RxpOIzkBb-36">
          <mxGeometry x="-0.0925" y="1" relative="1" as="geometry">
            <mxPoint as="offset" />
          </mxGeometry>
        </mxCell>
      </root>
    </mxGraphModel>
  </diagram>
</mxfile>
